<svg xmlns="http://www.w3.org/2000/svg" width="720" height="180" viewBox="0 0 720 180" role="img" aria-labelledby="title desc">
  <title id="title">Elsewhere Travel Co. logo</title>
  <desc id="desc">A compass and folded travel ticket mark with Elsewhere Travel Co. wordmark.</desc>
  <rect width="720" height="180" rx="24" fill="#fbfcf8"/>
  <g transform="translate(26 24)">
    <rect x="0" y="0" width="132" height="132" rx="26" fill="#176b5b"/>
    <path d="M23 86c20-13 43-18 68-14 7 1 14 3 20 5" fill="none" stroke="#ffd889" stroke-width="7" stroke-linecap="round"/>
    <path d="M96 31 73 103 58 75 30 60 96 31Z" fill="#ffffff"/>
    <path d="M73 103 96 31 81 83Z" fill="#d5a842"/>
    <circle cx="66" cy="66" r="46" fill="none" stroke="#ffffff" stroke-opacity=".32" stroke-width="4"/>
    <circle cx="66" cy="66" r="5" fill="#b9542b"/>
  </g>
  <g transform="translate(186 42)">
    <text x="0" y="52" fill="#17211f" font-family="Inter, ui-sans-serif, system-ui, -apple-system, BlinkMacSystemFont, 'Segoe UI', sans-serif" font-size="52" font-weight="850" letter-spacing="0">Elsewhere</text>
    <text x="2" y="91" fill="#62716d" font-family="Inter, ui-sans-serif, system-ui, -apple-system, BlinkMacSystemFont, 'Segoe UI', sans-serif" font-size="22" font-weight="760" letter-spacing="2">TRAVEL CO.</text>
    <path d="M236 83h150" stroke="#dce5df" stroke-width="3" stroke-linecap="round"/>
    <path d="M410 82c9 0 16-7 16-16s-7-16-16-16" fill="none" stroke="#b9542b" stroke-width="5" stroke-linecap="round"/>
  </g>
</svg>
